<?xml version="1.0" standalone="no"?>
<!DOCTYPE svg PUBLIC "-//W3C//DTD SVG 20010904//EN"
 "http://www.w3.org/TR/2001/REC-SVG-20010904/DTD/svg10.dtd">
<svg version="1.0" xmlns="http://www.w3.org/2000/svg"
 width="564.000000pt" height="508.000000pt" viewBox="0 0 564.000000 508.000000"
 preserveAspectRatio="xMidYMid meet">

<g transform="translate(0.000000,508.000000) scale(0.100000,-0.100000)"
fill="#000000" stroke="none">
<path d="M3905 4287 c-24 -14 -107 -91 -239 -221 -84 -83 -236 -261 -236 -276
0 -3 -17 -18 -38 -31 -37 -24 -40 -25 -96 -12 -32 7 -62 10 -67 7 -6 -3 -22 2
-37 12 -29 19 -82 31 -175 41 -35 3 -78 16 -105 31 -27 15 -75 29 -112 34 -36
5 -101 13 -145 19 -44 6 -132 12 -195 14 -101 2 -124 0 -185 -21 -38 -14 -94
-41 -122 -62 -29 -20 -74 -52 -100 -69 -27 -18 -71 -58 -99 -90 l-51 -57 -30
22 c-17 12 -36 22 -41 22 -6 0 -23 11 -39 24 -15 13 -57 37 -93 54 -36 17 -80
42 -99 56 -19 14 -46 26 -60 26 -14 0 -34 9 -45 19 -12 11 -68 43 -126 73 -58
30 -123 66 -145 81 -22 15 -49 27 -60 27 -23 0 -85 -35 -85 -49 0 -5 -16 -25
-37 -44 l-36 -36 -4 -108 c-7 -159 -4 -253 8 -276 7 -11 8 -41 4 -73 -4 -34
-2 -61 6 -76 7 -12 13 -65 14 -118 4 -215 43 -347 127 -426 18 -17 42 -48 53
-68 18 -34 19 -37 3 -64 -27 -45 -59 -153 -78 -262 -23 -135 -7 -367 30 -441
11 -21 20 -54 20 -73 0 -30 17 -79 66 -193 8 -17 14 -40 14 -51 0 -33 29 -105
54 -132 12 -14 28 -38 35 -54 7 -16 23 -43 37 -60 67 -83 91 -133 98 -204 10
-98 36 -147 92 -174 l45 -22 44 24 c25 14 56 34 68 46 47 43 63 46 115 24 26
-11 70 -24 97 -29 51 -9 147 -40 220 -72 22 -9 60 -22 85 -29 25 -6 63 -16 85
-21 146 -38 482 -44 566 -11 15 6 85 11 158 11 72 0 136 3 142 7 6 3 70 8 143
11 207 6 229 9 305 50 24 12 58 23 75 23 18 0 36 4 42 10 5 5 39 13 74 16 36
3 74 9 85 13 11 5 41 13 67 20 26 6 85 29 130 51 46 22 86 40 90 40 18 0 209
133 224 155 9 14 44 53 78 88 77 77 121 140 135 194 14 50 72 152 124 214 39
48 46 83 25 122 -6 12 -11 49 -11 81 1 33 -4 72 -9 86 -6 14 -10 90 -9 172 l2
146 -71 144 c-62 126 -68 144 -54 153 62 38 81 55 96 85 31 64 17 126 -38 169
-35 27 -108 27 -188 1 -79 -27 -97 -25 -131 10 -36 37 -37 76 -6 144 13 28 27
75 33 105 5 31 12 71 15 89 3 18 0 53 -7 78 -7 25 -14 74 -15 107 -2 94 -21
149 -100 282 -13 22 -40 72 -60 110 -76 149 -106 197 -162 254 -94 97 -152
130 -188 108z m89 -504 c3 -32 11 -94 17 -138 12 -92 12 -197 -2 -232 -5 -13
-9 -45 -9 -71 -1 -26 -7 -72 -14 -103 -7 -31 -13 -86 -12 -122 1 -73 21 -111
72 -137 69 -36 147 -119 137 -147 -6 -18 -49 -63 -59 -63 -3 0 -26 -17 -52
-39 -26 -21 -60 -46 -77 -55 -103 -56 -170 -108 -211 -162 -23 -29 -25 -40
-20 -79 6 -36 13 -48 36 -60 16 -8 39 -15 52 -15 13 0 40 -11 60 -25 20 -14
49 -25 63 -25 15 0 35 -5 45 -10 19 -10 19 -11 0 -43 -28 -45 -25 -71 16 -132
51 -78 141 -150 262 -210 81 -40 86 -51 47 -109 -14 -20 -25 -42 -25 -49 0 -7
-18 -28 -41 -47 -22 -19 -56 -56 -75 -82 -19 -26 -45 -50 -57 -54 -34 -10
-103 -63 -117 -89 -24 -45 -152 -95 -245 -95 -19 0 -54 -9 -77 -19 -24 -11
-86 -24 -138 -30 -52 -6 -126 -16 -165 -22 -143 -23 -201 -24 -415 -8 -14 1
-97 2 -185 1 -352 0 -535 18 -591 59 -6 5 -37 11 -70 14 -67 7 -144 26 -144
36 0 4 7 13 17 20 9 8 31 37 50 66 18 28 37 54 42 58 23 14 41 72 41 131 0 55
-3 66 -26 87 -14 14 -44 30 -66 38 -37 12 -43 11 -77 -8 -20 -12 -55 -31 -78
-43 -23 -12 -62 -43 -85 -68 -103 -111 -108 -115 -129 -96 -23 21 -49 88 -52
135 -2 24 -13 48 -35 73 -17 20 -34 49 -38 64 -3 15 -14 52 -26 82 -34 92 -34
107 -3 112 49 10 228 -18 276 -43 41 -21 94 -33 214 -45 65 -7 94 14 102 71 6
48 -23 105 -78 153 -43 38 -114 71 -150 72 -30 0 -146 38 -174 57 -22 15 -72
17 -130 3 -22 -5 -56 -5 -75 -1 l-35 7 2 59 c1 33 5 86 9 118 6 49 11 60 35
74 53 32 71 120 35 178 -7 11 -16 31 -19 46 -4 14 -32 63 -62 109 -36 53 -55
90 -52 102 3 11 -5 49 -18 86 -12 37 -26 100 -30 141 -3 40 -11 84 -15 97 -5
13 -12 70 -15 125 -7 120 2 140 45 109 16 -11 32 -20 38 -20 5 0 15 -7 23 -16
17 -21 106 -79 149 -97 19 -8 55 -33 80 -56 25 -22 49 -41 54 -41 8 0 62 -47
166 -145 34 -33 72 -45 133 -45 63 0 75 9 156 118 35 45 68 82 75 82 6 0 36
25 66 56 83 83 103 93 196 94 151 2 385 -10 404 -20 10 -5 27 -10 38 -10 10 0
39 -13 63 -30 27 -18 57 -30 77 -30 19 0 46 -7 60 -15 35 -18 133 -45 167 -45
15 0 38 -9 52 -20 16 -12 41 -20 64 -20 55 0 153 70 194 137 16 28 56 80 87
115 32 36 67 86 78 111 12 27 33 54 50 64 17 9 30 20 30 23 0 14 53 60 69 60
15 0 19 -11 25 -57z m443 -1270 c3 -10 22 -35 42 -56 35 -37 35 -37 19 -70
-25 -48 -38 -98 -35 -132 2 -27 -1 -30 -29 -33 -22 -2 -45 7 -81 32 -51 35
-152 66 -214 66 -16 0 -29 5 -29 10 0 6 8 10 19 10 10 0 30 9 44 20 14 11 30
20 37 20 13 0 100 58 115 76 15 20 87 74 97 74 5 0 11 -8 15 -17z"/>
<path d="M3245 2894 c-56 -60 -22 -162 96 -289 49 -52 67 -65 91 -65 43 0 65
16 89 62 18 35 20 51 14 106 -7 61 -10 68 -57 113 -53 51 -143 99 -185 99 -13
0 -35 -12 -48 -26z"/>
<path d="M2322 2664 c-18 -12 -22 -25 -22 -63 0 -27 7 -65 15 -84 16 -40 128
-137 157 -137 10 0 27 -5 37 -12 15 -9 28 -9 61 2 64 21 86 66 57 116 -33 59
-109 132 -169 162 -71 36 -103 39 -136 16z"/>
<path d="M2975 2461 c-68 -28 -83 -39 -119 -94 -59 -89 -62 -160 -9 -219 20
-23 10 -77 -20 -108 -12 -12 -60 -46 -106 -76 -64 -41 -94 -54 -122 -54 -39 0
-88 -17 -101 -35 -22 -30 11 -147 56 -201 45 -55 135 -94 216 -94 36 1 75 6
87 13 56 31 212 180 235 225 21 39 40 40 82 5 78 -66 183 -71 333 -17 53 19
83 65 83 124 0 37 -5 48 -39 81 -22 20 -57 43 -78 49 -21 7 -42 16 -47 21 -6
5 -21 9 -33 9 -13 0 -43 14 -66 30 -23 17 -58 41 -77 53 -33 22 -35 26 -36 82
-1 33 -6 72 -10 87 -11 33 -108 118 -135 118 -11 0 -28 4 -37 9 -11 6 -31 3
-57 -8z"/>
</g>
</svg>
